<mxfile host="app.diagrams.net" modified="2024-05-23T04:21:19.500Z" agent="Mozilla/5.0 (X11; Ubuntu; Linux x86_64; rv:109.0) Gecko/20100101 Firefox/118.0" version="24.4.6" etag="gwAksd5jUIV8qidVB6IK" type="github">
  <diagram name="Page-1" id="iYfEcGZC3Mart0tt_Pew">
    <mxGraphModel>
      <root>
        <mxCell id="0" />
        <mxCell id="1" parent="0" />
      </root>
    </mxGraphModel>
  </diagram>
</mxfile>
